<svg width="24" height="24" viewBox="0 0 24 24" fill="none" xmlns="http://www.w3.org/2000/svg">
<path d="M12.0004 14.6498C11.8837 14.6498 11.7714 14.6332 11.6634 14.5998C11.5547 14.5665 11.4587 14.4998 11.3754 14.3998L6.85039 9.89984C6.71706 9.74984 6.65039 9.57484 6.65039 9.37484C6.65039 9.17484 6.72539 8.99984 6.87539 8.84984C7.02539 8.71651 7.20039 8.64984 7.40039 8.64984C7.60039 8.64984 7.77539 8.71651 7.92539 8.84984L12.0004 12.9248L16.1004 8.84984C16.2337 8.69984 16.4004 8.62884 16.6004 8.63684C16.8004 8.6455 16.9754 8.71651 17.1254 8.84984C17.2754 8.99984 17.3504 9.17884 17.3504 9.38684C17.3504 9.5955 17.2754 9.7665 17.1254 9.89984L12.6254 14.3998C12.5421 14.4998 12.4464 14.5665 12.3384 14.5998C12.2297 14.6332 12.1171 14.6498 12.0004 14.6498V14.6498Z" fill="black"/>
</svg>
